<svg viewBox="0 0 64 64">
  <path fill="currentColor" fill-rule="nonzero" d="M.842 16.73L30.16 32.372c.508.271 1.13.271 1.638 0L61.115 16.73c1.157-.617 1.113-2.2-.076-2.76L31.722.165a1.754 1.754 0 00-1.486 0L.918 13.97c-1.189.56-1.232 2.143-.076 2.76zM31.017 3.19l25.997 12.192-25.997 13.777L5.055 15.382 31.017 3.189zm-1.7 29.157v30.057c0 1.198 1.37 1.95 2.478 1.362l31.272-16.622c.522-.277.845-.798.845-1.362V25.537c0-.864-.744-1.565-1.662-1.565-.917 0-1.66.7-1.66 1.565v20.245l.844-1.362-31.272 16.622 2.478 1.362V32.347c0-.864-.744-1.565-1.661-1.565-.918 0-1.662.7-1.662 1.565zm2.519 28.717L2.518 44.442l.805 1.34V16.334c0-.864-.744-1.564-1.662-1.564-.917 0-1.661.7-1.661 1.564v29.448c0 .549.305 1.057.804 1.34l29.318 16.622c.786.446 1.807.207 2.28-.533.473-.74.22-1.702-.566-2.147z"/>
</svg>
